#!OML:ASF H:\Dans Jumps\Project 1\Capture day 1\Session 1\subject.ASF
:FULLY-SPECIFIED
:DEGREES
610
root 0.425368 17.7492 -3.05151 6.82661 -0.160009 -1.35444
lowerback 0.18855 -0.432486 -0.00905576
upperback 3.20732 -0.626577 1.83235
thorax 3.20941 -0.341302 1.87301
lowerneck -12.903 0.197811 -2.12691
upperneck 35.6425 0.571527 0.881081
head 14.3787 0.0754666 0.826698
rclavicle -3.08116e-015 -3.57812e-015
rhumerus -26.2541 -15.0248 -80.0536
rradius 23.1966
rwrist 33.5522
rhand -18.6911 -26.1971
rfingers 7.12502
rthumb 7.60331 -56.0404
lclavicle -3.08116e-015 -3.57812e-015
lhumerus -24.271 -5.16196 91.7164
lradius 18.0171
lwrist 9.7415
lhand -25.2929 -3.46825
lfingers 7.12502
lthumb 1.22868 26.508
rfemur -17.1391 -0.981271 19.1428
rtibia 22.8493
rfoot -11.5506 -1.05884
rtoes 14.2959
lfemur -15.4715 7.03546 -17.6119
ltibia 19.8083
lfoot -8.83843 2.84865
ltoes 2.82655
611
root 0.426537 17.7488 -3.0529 6.80636 -0.165181 -1.35906
lowerback 0.198906 -0.4312 -0.00543508
upperback 3.2088 -0.624831 1.83218
thorax 3.205 -0.340319 1.87091
lowerneck -12.9021 0.201446 -2.10589
upperneck 35.6448 0.579692 0.856694
head 14.3796 0.0784742 0.814293
rclavicle 1.39149e-015 -3.57812e-015
rhumerus -26.2612 -15.0484 -80.0406
rradius 23.2006
rwrist 33.5673
rhand -18.6907 -26.1722
rfingers 7.12502
rthumb 7.60374 -56.0155
lclavicle 1.39149e-015 -3.57812e-015
lhumerus -24.261 -5.15085 91.7095
lradius 18.0116
lwrist 9.75188
lhand -25.2494 -3.44921
lfingers 7.12502
lthumb 1.27071 26.5268
rfemur -17.1228 -0.972163 19.143
rtibia 22.8514
rfoot -11.5495 -1.06718
rtoes 14.2881
lfemur -15.4601 7.04069 -17.6086
ltibia 19.821
lfoot -8.84526 2.84761
ltoes 2.85107
612
root 0.427751 17.7485 -3.05403 6.78812 -0.178549 -1.36809
lowerback 0.201462 -0.428617 0.00278889
upperback 3.21143 -0.621552 1.83268
thorax 3.20608 -0.338483 1.86692
lowerneck -12.8998 0.203141 -2.08894
upperneck 35.6495 0.584594 0.836281
head 14.3813 0.0800262 0.80373
rclavicle 3.27995e-015 1.31198e-014
rhumerus -26.2676 -15.0544 -80.0326
rradius 23.2057
rwrist 33.5645
rhand -18.6868 -26.1712
rfingers 7.12502
rthumb 7.60743 -56.0143
lclavicle 3.27995e-015 1.31198e-014
lhumerus -24.2564 -5.14072 91.7031
lradius 18.0043
lwrist 9.7464
lhand -25.2491 -3.47699
lfingers 7.12502
lthumb 1.271 26.499
rfemur -17.1082 -0.957208 19.1474
rtibia 22.8519
rfoot -11.5477 -1.07375
rtoes 14.2658
lfemur -15.4491 7.04821 -17.6009
ltibia 19.8341
lfoot -8.85148 2.85229
ltoes 2.87442
613
root 0.428978 17.7481 -3.05517 6.77147 -0.193387 -1.37535
lowerback 0.20347 -0.426268 0.0084234
upperback 3.21321 -0.61853 1.83292
thorax 3.20663 -0.336836 1.86409
lowerneck -12.8939 0.205927 -2.07131
upperneck 35.6539 0.590637 0.816331
head 14.3821 0.0822183 0.793392
rclavicle -1.98785e-015 5.96354e-015
rhumerus -26.2754 -15.0599 -80.0236
rradius 23.2094
rwrist 33.5626
rhand -18.6844 -26.1761
rfingers 7.12502
rthumb 7.60983 -56.0192
lclavicle -1.98785e-015 5.96354e-015
lhumerus -24.2561 -5.13326 91.6977
lradius 18.0025
lwrist 9.74233
lhand -25.3198 -3.58041
lfingers 7.12502
lthumb 1.20267 26.3959
rfemur -17.095 -0.943365 19.1499
rtibia 22.8521
rfoot -11.5462 -1.07862
rtoes 14.2363
lfemur -15.4398 7.05657 -17.5955
ltibia 19.8475
lfoot -8.85748 2.85746
ltoes 2.88749
614
root 0.430206 17.7478 -3.05633 6.75684 -0.208461 -1.38468
lowerback 0.202399 -0.424486 0.0158838
upperback 3.21598 -0.616364 1.83391
thorax 3.20995 -0.335593 1.86097
lowerneck -12.8886 0.208777 -2.05637
upperneck 35.6585 0.596023 0.80054
head 14.383 0.0843178 0.785128
rclavicle 0 1.55052e-014
rhumerus -26.2772 -15.0734 -80.013
rradius 23.2058
rwrist 33.5666
rhand -18.6865 -26.1792
rfingers 7.12502
rthumb 7.60771 -56.0223
lclavicle 0 1.55052e-014
lhumerus -24.2569 -5.12821 91.6937
lradius 18.0068
lwrist 9.73759
lhand -25.449 -3.7173
lfingers 7.12502
lthumb 1.07788 26.2597
rfemur -17.084 -0.9304 19.1551
rtibia 22.8514
rfoot -11.544 -1.08297
rtoes 14.2034
lfemur -15.433 7.06426 -17.5881
ltibia 19.8616
lfoot -8.86262 2.86361
ltoes 2.88828
615
root 0.431499 17.7475 -3.05753 6.74468 -0.223695 -1.39177
lowerback 0.199476 -0.423481 0.0210922
upperback 3.21842 -0.615201 1.83439
thorax 3.21403 -0.334906 1.85855
lowerneck -12.8806 0.211635 -2.04804
upperneck 35.6626 0.600157 0.793228
head 14.3831 0.0861319 0.781288
rclavicle -3.47873e-015 1.39149e-014
rhumerus -26.2775 -15.0888 -80.002
rradius 23.2008
rwrist 33.5748
rhand -18.687 -26.1886
rfingers 7.12502
rthumb 7.60729 -56.0318
lclavicle -3.47873e-015 1.39149e-014
lhumerus -24.2583 -5.1225 91.689
lradius 18.0175
lwrist 9.73981
lhand -25.6025 -3.86699
lfingers 7.12502
lthumb 0.929682 26.1107
rfemur -17.0765 -0.92003 19.1577
rtibia 22.8512
rfoot -11.5419 -1.08464
rtoes 14.1806
lfemur -15.4294 7.07078 -17.5838
ltibia 19.8766
lfoot -8.86811 2.87091
ltoes 2.88143
616
root 0.432861 17.7472 -3.05861 6.73939 -0.241284 -1.39931
lowerback 0.189031 -0.423325 0.0264526
upperback 3.21811 -0.615248 1.83612
thorax 3.21957 -0.334831 1.85726
lowerneck -12.8702 0.211988 -2.05276
upperneck 35.6705 0.59977 0.798163
head 14.3844 0.0858482 0.78408
rclavicle 3.37934e-015 -1.15295e-014
rhumerus -26.2825 -15.0825 -79.9943
rradius 23.2046
rwrist 33.5647
rhand -18.6756 -26.2175
rfingers 7.12502
rthumb 7.6183 -56.0602
lclavicle 3.37934e-015 -1.15295e-014
lhumerus -24.265 -5.10743 91.6842
lradius 18.0288
lwrist 9.72759
lhand -25.7197 -3.9707
lfingers 7.12502
lthumb 0.816461 26.0075
rfemur -17.0777 -0.910563 19.1606
rtibia 22.8515
rfoot -11.5388 -1.08358
rtoes 14.1679
lfemur -15.4331 7.07739 -17.5803
ltibia 19.8925
lfoot -8.87295 2.88091
ltoes 2.86734
617
root 0.434197 17.7468 -3.05984 6.73577 -0.255967 -1.40702
lowerback 0.179155 -0.423539 0.0323605
upperback 3.21784 -0.615787 1.83762
thorax 3.22485 -0.334981 1.85541
lowerneck -12.8691 0.203753 -2.07449
upperneck 35.6862 0.586139 0.818598
head 14.3915 0.0796011 0.794273
rclavicle 1.2921e-015 7.95139e-016
rhumerus -26.2863 -15.0812 -79.9858
rradius 23.2083
rwrist 33.5539
rhand -18.6643 -26.2423
rfingers 7.12502
rthumb 7.62915 -56.0847
lclavicle 1.2921e-015 7.95139e-016
lhumerus -24.2708 -5.1013 91.6808
lradius 18.0322
lwrist 9.71049
lhand -25.7818 -4.03776
lfingers 7.12502
lthumb 0.756445 25.9406
rfemur -17.0819 -0.903908 19.164
rtibia 22.8534
rfoot -11.5363 -1.08308
rtoes 14.1596
lfemur -15.4395 7.08257 -17.5767
ltibia 19.9089
lfoot -8.87777 2.88921
ltoes 2.86275
618
root 0.435456 17.7464 -3.06116 6.73368 -0.269817 -1.41036
lowerback 0.169727 -0.424261 0.032829
upperback 3.21744 -0.616887 1.83839
thorax 3.22979 -0.335548 1.85586
lowerneck -12.8663 0.193804 -2.09797
upperneck 35.6991 0.570159 0.839647
head 14.3969 0.0722179 0.804627
rclavicle 1.98785e-015 3.97569e-015
rhumerus -26.2909 -15.0767 -79.9779
rradius 23.2152
rwrist 33.5366
rhand -18.6512 -26.2643
rfingers 7.12502
rthumb 7.64185 -56.1063
lclavicle 1.98785e-015 3.97569e-015
lhumerus -24.2768 -5.10382 91.6793
lradius 18.0259
lwrist 9.68926
lhand -25.7751 -4.05285
lfingers 7.12502
lthumb 0.763002 25.9255
rfemur -17.089 -0.896347 19.1627
rtibia 22.8566
rfoot -11.5346 -1.08462
rtoes 14.156
lfemur -15.4483 7.08708 -17.5778
ltibia 19.926
lfoot -8.88206 2.89707
ltoes 2.86528
